# xmcd
#
# Track frame offsets: 
#        150
#        15600
#        31568
#        48068
#        64305
#        82975
#        103200
#        118823
#        133918
#        148253
#        168978
#        192415
#        221595
#        237123
#        249575
#        262608
#
# Disc length: 3705 seconds
#
# Revision: 1
# Processed by: cddbd v1.5.2PL0 Copyright (c) Steve Scherf et al.
# Submitted via: ExactAudioCopy v0.99pb3
#
DISCID=dc0e7710
DTITLE=John Henry Barbee - Blues Masters
DYEAR=1991
DGENRE=Blues
TTITLE0=Dust My Broom
TTITLE1=Hey Baby
TTITLE2=That's Alright-1
TTITLE3=Early Morning Blues -1
TTITLE4=I Heard My Baby
TTITLE5=I Ain't Gonna Pick No More Cotton
TTITLE6=Worried Life Blues-2
TTITLE7=Miss Nelly Grey
TTITLE8=Tell Me Baby
TTITLE9=John Henry
TTITLE10=Your Friend
TTITLE11=Backwater Blues
TTITLE12=Early In The Morning-2
TTITLE13=Jump Blues
TTITLE14=Worried Life Blues-1
TTITLE15=That's Alright-2
EXTD=Storyville Records
EXTT0=
EXTT1=
EXTT2=
EXTT3=
EXTT4=
EXTT5=
EXTT6=
EXTT7=
EXTT8=
EXTT9=
EXTT10=
EXTT11=
EXTT12=
EXTT13=
EXTT14=
EXTT15=
PLAYORDER=
